<?xml version="1.0" standalone="no"?>
<!DOCTYPE svg PUBLIC "-//W3C//DTD SVG 20010904//EN"
 "http://www.w3.org/TR/2001/REC-SVG-20010904/DTD/svg10.dtd">
<svg version="1.0" xmlns="http://www.w3.org/2000/svg"
 width="1651.000000pt" height="1501.000000pt" viewBox="0 0 1651.000000 1501.000000"
 preserveAspectRatio="xMidYMid meet">
<metadata>
Created by potrace 1.15, written by Peter Selinger 2001-2017
</metadata>
<g transform="translate(0.000000,1501.000000) scale(0.100000,-0.100000)"
fill="#000000" stroke="none">
<path d="M7240 14449 c-2151 -146 -4110 -1281 -5316 -3080 -654 -974 -1032
-2044 -1151 -3254 -25 -256 -25 -973 0 -1230 91 -932 332 -1766 741 -2560 338
-656 750 -1219 1276 -1745 543 -543 1113 -956 1795 -1300 787 -397 1602 -630
2500 -715 229 -22 789 -31 1030 -16 971 60 1871 301 2725 732 1118 563 2084
1438 2749 2489 598 945 941 1948 1057 3090 21 210 30 835 15 1067 -63 971
-299 1844 -732 2703 -338 673 -748 1239 -1289 1781 -538 540 -1087 942 -1746
1280 -872 448 -1756 693 -2742 759 -178 12 -730 11 -912 -1z m1065 -303 c318
-31 581 -72 846 -131 1060 -236 2048 -729 2884 -1440 193 -164 586 -557 750
-750 949 -1116 1491 -2462 1586 -3934 13 -209 7 -755 -11 -946 -82 -890 -302
-1665 -690 -2435 -434 -860 -1045 -1615 -1794 -2214 -389 -311 -753 -544
-1206 -769 -753 -375 -1520 -593 -2365 -672 -234 -22 -725 -30 -960 -16 -768
46 -1488 210 -2185 498 -228 94 -627 295 -850 428 -1326 794 -2321 1990 -2860
3434 -182 487 -310 1032 -369 1566 -261 2354 742 4656 2652 6086 449 337 981
634 1517 849 635 254 1320 409 2030 459 186 14 847 5 1025 -13z"/>
<path d="M7740 13803 c0 -10 -7 -122 -16 -249 -9 -126 -13 -253 -10 -281 18
-160 116 -267 277 -303 83 -19 232 -9 294 19 90 40 158 121 185 221 12 43 51
551 43 559 -3 5 -226 21 -230 17 -1 -1 -9 -105 -18 -231 -20 -302 -31 -347
-96 -381 -57 -29 -152 -9 -184 39 -34 52 -36 85 -19 340 9 136 15 250 12 252
-2 2 -56 7 -121 11 -112 7 -117 6 -117 -13z"/>
<path d="M6836 13759 c-54 -10 -100 -20 -101 -21 -2 -2 13 -86 31 -188 19
-102 33 -192 32 -201 -2 -10 -70 41 -207 156 l-203 172 -95 -17 c-51 -10 -95
-19 -98 -21 -5 -5 140 -797 147 -804 6 -6 217 31 225 38 2 3 -12 93 -32 202
-20 108 -35 198 -33 200 2 2 96 -75 209 -170 l205 -173 92 18 c51 9 95 19 98
22 3 3 -28 186 -68 407 -59 326 -75 401 -88 400 -8 -1 -60 -9 -114 -20z"/>
<path d="M8815 13716 c-11 -31 -185 -764 -185 -778 0 -11 29 -22 112 -42 61
-14 112 -25 113 -24 1 2 24 94 50 205 l49 202 121 -247 122 -248 94 -21 c52
-12 95 -20 96 -19 4 3 193 784 193 794 0 4 -46 18 -101 31 -56 12 -108 25
-115 28 -9 3 -26 -52 -60 -196 -26 -111 -50 -201 -53 -200 -4 0 -60 109 -126
242 l-120 242 -93 21 c-66 16 -95 18 -97 10z"/>
<path d="M5530 13442 c-148 -50 -240 -124 -297 -240 -37 -74 -38 -79 -38 -186
0 -104 2 -115 32 -178 109 -232 370 -311 619 -188 61 30 96 56 142 104 84 91
106 149 107 286 0 100 -2 109 -36 180 -44 93 -108 158 -196 202 -61 30 -76 33
-173 35 -80 2 -118 -1 -160 -15z m186 -203 c71 -22 144 -134 144 -224 0 -149
-154 -255 -288 -199 -153 64 -192 294 -65 391 61 47 127 57 209 32z"/>
<path d="M9714 13054 c-81 -211 -145 -386 -143 -388 12 -12 215 -83 221 -78 6
7 284 724 290 750 3 13 -23 26 -158 77 l-62 23 -148 -384z"/>
<path d="M10276 13268 c-11 -37 -77 -871 -70 -878 5 -4 52 -30 104 -58 l95
-50 345 275 c190 151 345 279 345 284 0 5 -45 34 -101 64 l-100 54 -218 -176
c-119 -96 -219 -173 -220 -171 -2 1 9 127 24 278 15 151 27 276 26 276 -5 5
-214 114 -220 114 -3 0 -8 -6 -10 -12z"/>
<path d="M4759 13075 c-80 -20 -162 -58 -233 -109 -103 -74 -155 -160 -156
-256 0 -103 74 -211 156 -226 57 -11 172 3 259 30 44 14 99 28 122 32 37 5 43
3 58 -20 16 -24 16 -28 1 -52 -39 -59 -184 -121 -293 -127 -60 -2 -59 2 -46
-129 l6 -68 51 0 c171 0 418 137 486 269 44 87 37 191 -19 268 -57 78 -155
100 -291 63 -192 -52 -214 -57 -232 -52 -21 5 -33 41 -23 71 14 47 167 121
248 121 55 0 57 5 43 105 l-11 90 -35 2 c-19 1 -60 -4 -91 -12z"/>
<path d="M11040 12444 c-118 -157 -230 -305 -248 -329 l-33 -44 267 -201 c147
-110 267 -200 268 -198 1 2 25 33 54 69 29 37 52 71 52 77 0 7 -189 156 -328
258 -5 4 71 104 79 104 4 0 70 -47 146 -105 l138 -105 26 31 c15 16 40 50 57
73 l31 43 -143 110 -144 109 30 39 c16 22 33 44 38 48 4 5 80 -45 169 -112 88
-67 162 -121 164 -121 3 0 30 34 61 75 l56 74 -255 193 c-140 106 -259 194
-263 195 -4 2 -104 -126 -222 -283z"/>
<path d="M4029 12640 l-95 -78 -18 -218 c-9 -120 -19 -220 -20 -222 -3 -2
-132 158 -192 236 -9 12 -27 2 -103 -59 -50 -40 -90 -78 -87 -85 7 -19 498
-634 505 -634 11 0 175 129 179 140 2 5 -24 44 -57 88 -54 69 -61 83 -61 122
0 75 -3 75 183 30 92 -22 173 -40 181 -40 15 0 216 157 216 169 0 4 -119 36
-265 71 -146 35 -270 67 -276 71 -9 5 -8 63 5 225 18 249 19 264 9 263 -5 0
-51 -35 -104 -79z"/>
<path d="M7390 12604 c-19 -2 -91 -9 -160 -14 -494 -43 -1027 -176 -1504 -377
-483 -204 -962 -503 -1371 -857 -157 -137 -435 -419 -565 -576 -661 -796
-1054 -1725 -1167 -2760 -22 -202 -25 -806 -5 -990 74 -688 236 -1247 527
-1825 264 -524 578 -952 1001 -1365 399 -389 812 -681 1309 -925 556 -273
1111 -433 1735 -502 234 -25 806 -25 1040 0 617 68 1169 225 1705 486 316 154
572 310 840 511 361 272 705 610 976 960 621 803 983 1745 1058 2755 14 180
14 570 0 750 -130 1752 -1135 3296 -2690 4135 -617 334 -1310 534 -2038 590
-122 9 -604 12 -691 4z m655 -294 c826 -61 1606 -323 2295 -774 l124 -81
-1377 -3 c-757 -1 -1997 -1 -2754 0 l-1378 3 125 81 c705 458 1505 724 2335
777 124 8 503 6 630 -3z m349 -3277 l2416 -2126 0 -738 0 -738 -571 -503
c-314 -277 -574 -502 -578 -500 -3 2 -1141 1002 -2528 2223 l-2523 2220 0
1145 0 1144 684 0 684 0 2416 -2127z m2416 196 l0 -1931 -122 109 c-68 60
-1045 921 -2173 1912 -1127 992 -2059 1812 -2070 1822 -19 19 32 19 2173 19
l2192 0 0 -1931z m-5020 -5229 c808 -712 1468 -1295 1466 -1297 -6 -6 -315 37
-448 62 -1349 261 -2525 1085 -3235 2270 -835 1391 -908 3122 -194 4573 227
459 473 815 836 1206 l100 108 3 -2814 2 -2815 1470 -1293z m5577 6635 c566
-653 952 -1475 1098 -2337 77 -455 85 -965 24 -1433 -175 -1333 -921 -2551
-2036 -3325 -547 -379 -1186 -648 -1841 -775 -131 -25 -442 -68 -448 -62 -2 1
660 587 1471 1301 l1475 1297 0 2807 1 2807 80 -85 c45 -47 124 -134 176 -195z
m-4328 -4294 c2281 -2008 2401 -2116 2384 -2132 -10 -9 -398 -350 -862 -758
-481 -424 -849 -740 -856 -737 -7 2 -707 615 -1554 1361 l-1541 1356 0 1520
c0 1275 2 1519 14 1512 7 -4 1094 -959 2415 -2122z"/>
<path d="M5795 10275 c-318 -70 -564 -301 -661 -620 -24 -81 -27 -105 -27
-240 0 -134 3 -159 27 -238 98 -326 349 -557 676 -623 101 -20 300 -15 395 11
256 70 479 263 581 505 93 222 91 492 -5 705 -116 254 -352 444 -623 499 -93
19 -278 20 -363 1z m320 -290 c171 -45 310 -157 391 -317 36 -71 55 -153 56
-244 1 -101 -14 -168 -60 -264 -46 -99 -166 -221 -263 -268 -192 -93 -408 -79
-583 38 -196 132 -297 367 -252 588 21 102 45 159 102 239 135 189 390 285
609 228z"/>
<path d="M7547 8755 c-307 -58 -569 -286 -666 -580 -77 -232 -62 -457 44 -672
217 -440 744 -615 1186 -392 306 153 499 492 475 835 -26 385 -285 699 -655
795 -102 27 -281 33 -384 14z m278 -290 c311 -65 522 -378 460 -680 -48 -233
-224 -414 -453 -466 -67 -15 -197 -12 -266 6 -251 66 -436 300 -439 555 -2
167 53 302 172 421 147 147 333 205 526 164z"/>
<path d="M9370 7243 c-70 -5 -183 -32 -252 -59 -248 -97 -457 -331 -523 -584
-130 -502 181 -999 684 -1094 281 -54 560 29 770 228 376 358 357 969 -40
1304 -77 65 -207 138 -294 165 -99 31 -246 48 -345 40z m215 -308 c215 -56
385 -235 431 -455 84 -398 -288 -770 -686 -686 -220 46 -399 216 -455 431 -19
76 -19 210 1 289 50 195 213 361 409 417 77 22 222 24 300 4z"/>
<path d="M11697 11866 l-297 -289 77 -81 c43 -45 83 -82 89 -84 6 -2 45 29 86
67 l75 70 39 -40 38 -39 -25 -128 -25 -128 88 -94 c48 -52 89 -92 92 -89 2 2
17 69 33 148 l29 145 89 0 c106 1 147 17 213 84 62 61 82 111 82 203 0 121
-33 177 -228 379 l-158 165 -297 -289z m434 -145 c16 -25 29 -54 29 -65 0 -32
-36 -83 -70 -101 -48 -25 -83 -11 -162 63 l-70 67 83 77 84 77 39 -37 c21 -20
51 -57 67 -81z"/>
<path d="M3241 11894 c-49 -18 -81 -36 -126 -72 -50 -40 -306 -326 -303 -338
2 -6 138 -134 302 -284 l299 -273 78 84 c43 46 78 89 79 95 0 6 -34 42 -75 79
l-75 67 37 45 c34 41 40 45 73 39 19 -3 78 -11 131 -18 l97 -12 54 60 c75 81
111 124 107 129 -2 2 -56 10 -119 19 -63 9 -129 19 -147 21 l-31 6 5 53 c16
159 -111 303 -276 313 -44 2 -81 -2 -110 -13z m117 -239 c69 -58 62 -112 -30
-214 l-52 -59 -82 76 -83 75 47 55 c81 95 142 116 200 67z"/>
<path d="M12521 11329 c-54 -16 -110 -59 -137 -104 -19 -33 -24 -56 -24 -108
0 -65 4 -78 81 -284 25 -68 24 -99 -1 -113 -29 -16 -53 -5 -95 42 -47 52 -93
148 -107 228 l-12 62 -40 -5 c-23 -4 -65 -11 -95 -18 l-54 -11 6 -52 c17 -162
146 -365 279 -437 55 -29 72 -34 133 -34 76 1 117 16 168 64 47 43 61 79 61
156 -1 60 -8 88 -52 202 -29 73 -52 141 -52 151 0 46 61 57 102 19 55 -51 118
-181 118 -244 0 -28 1 -28 110 -3 l87 21 -9 52 c-23 139 -162 338 -272 392
-60 29 -144 40 -195 24z"/>
<path d="M2402 10921 l-62 -99 241 -369 c133 -202 245 -372 250 -377 6 -7 139
183 139 200 0 4 -22 36 -48 73 l-48 66 92 141 92 141 68 -13 c38 -7 76 -13 86
-14 10 0 41 39 82 102 35 56 64 103 63 105 -2 1 -191 32 -422 68 -231 36 -431
68 -445 70 -22 4 -32 -6 -88 -94z m345 -162 c63 -12 113 -25 111 -28 -8 -19
-94 -150 -98 -150 -3 0 -27 32 -55 71 -75 107 -88 128 -79 128 4 0 58 -10 121
-21z"/>
<path d="M12825 10465 c-193 -107 -354 -196 -360 -198 -5 -2 10 -43 35 -90 78
-149 22 -158 433 69 196 109 357 201 357 206 0 9 -97 188 -109 200 -4 4 -164
-80 -356 -187z"/>
<path d="M13308 10217 c-43 -18 -78 -37 -78 -43 0 -6 20 -59 45 -118 l45 -107
-23 -8 c-92 -35 -544 -225 -551 -231 -10 -10 74 -220 88 -220 6 0 135 52 287
115 153 63 282 115 286 115 5 0 28 -49 53 -110 24 -60 46 -110 49 -110 22 0
171 68 171 77 0 26 -273 673 -284 673 -6 -1 -46 -15 -88 -33z"/>
<path d="M2640 10082 c-12 -26 -47 -104 -78 -174 -30 -71 -59 -128 -64 -128
-4 0 -130 55 -280 121 -150 67 -278 123 -284 125 -9 4 -112 -213 -103 -219 12
-10 736 -327 745 -327 9 0 55 98 241 518 l23 53 -45 19 c-25 11 -65 29 -90 40
l-44 19 -21 -47z"/>
<path d="M1809 9512 c-133 -85 -205 -243 -197 -432 3 -77 9 -106 31 -153 78
-169 226 -255 424 -245 112 6 184 38 264 117 98 98 145 230 137 386 -5 88 -24
151 -61 199 -14 19 -17 17 -92 -30 -43 -27 -82 -52 -87 -55 -5 -3 3 -32 18
-63 70 -154 -32 -316 -198 -316 -172 0 -283 167 -211 315 20 39 71 93 105 111
l28 14 -45 90 c-25 50 -51 90 -58 90 -7 0 -33 -13 -58 -28z"/>
<path d="M13502 9257 l-213 -213 -137 -33 c-75 -19 -140 -36 -144 -40 -7 -6
40 -210 52 -224 4 -4 70 8 146 27 l139 35 288 -86 c158 -47 290 -83 293 -80 7
6 -33 180 -47 208 -5 9 -66 32 -156 58 -81 24 -159 48 -172 53 -24 9 -20 14
104 138 l129 129 -29 121 c-16 66 -31 120 -35 120 -3 0 -101 -96 -218 -213z"/>
<path d="M2353 5843 c-40 -15 -73 -32 -73 -39 0 -7 10 -37 21 -68 12 -31 20
-58 18 -60 -2 -2 -128 -47 -279 -100 -151 -54 -279 -101 -284 -106 -12 -12 63
-222 78 -217 6 2 174 62 374 133 199 70 362 133 362 138 -1 32 -119 341 -131
343 -8 1 -47 -10 -86 -24z"/>
<path d="M12936 5697 c-88 -91 -142 -241 -133 -370 11 -166 139 -303 341 -364
69 -21 190 -21 241 1 97 41 174 128 210 236 20 60 22 159 5 218 -30 99 -134
172 -245 172 -144 -1 -250 -111 -264 -277 l-6 -71 -22 17 c-67 55 -82 149 -37
240 15 29 39 62 55 73 l28 21 -29 36 c-17 20 -45 54 -64 76 l-35 40 -45 -48z
m444 -342 c62 -32 69 -108 16 -161 -37 -37 -62 -42 -105 -19 -64 33 -63 136 2
175 39 24 49 24 87 5z"/>
<path d="M2440 5285 c-48 -22 -97 -72 -110 -111 l-11 -33 -34 15 c-19 8 -59
14 -90 14 -85 0 -147 -38 -188 -115 -31 -57 -30 -186 3 -270 36 -95 102 -187
166 -231 49 -34 64 -39 124 -42 114 -7 191 44 221 146 12 41 14 43 43 35 85
-21 184 14 225 80 51 83 48 193 -9 316 -62 131 -143 199 -247 207 -39 3 -69
-1 -93 -11z m178 -255 c29 -43 28 -75 -3 -105 -31 -32 -69 -32 -100 -1 -48 48
-45 114 6 139 41 19 67 10 97 -33z m-299 -103 c24 -20 52 -94 45 -121 -7 -30
-41 -63 -74 -70 -52 -13 -120 60 -120 129 0 78 85 114 149 62z"/>
<path d="M12625 4912 c-150 -72 -246 -269 -206 -419 41 -151 222 -228 362
-155 87 45 159 159 159 250 l0 35 21 -19 c36 -31 62 -101 54 -142 -12 -67 -56
-134 -114 -174 l-24 -17 49 -75 c27 -42 54 -76 60 -76 21 0 84 56 125 110 188
249 122 522 -159 661 -79 40 -94 44 -177 47 -83 3 -95 1 -150 -26z m139 -207
c40 -37 37 -96 -8 -141 -44 -44 -86 -46 -127 -5 -40 41 -40 88 2 136 39 44 91
49 133 10z"/>
<path d="M2843 4201 c-42 -30 -73 -89 -73 -139 0 -38 39 -112 73 -136 18 -13
48 -21 90 -24 52 -3 67 0 96 20 59 40 76 72 76 143 0 71 -17 103 -75 143 -51
34 -134 31 -187 -7z"/>
<path d="M12169 3917 c-53 -36 -79 -82 -79 -142 0 -125 131 -204 247 -148 111
52 117 226 9 292 -47 30 -132 29 -177 -2z"/>
<path d="M3520 3775 l-64 -65 83 -84 84 -85 -214 -222 -214 -222 84 -79 85
-79 216 216 215 215 80 -80 c44 -44 84 -80 90 -80 13 0 125 112 125 125 0 9
-418 429 -480 483 l-26 22 -64 -65z"/>
<path d="M11263 3299 c-46 -39 -83 -73 -83 -76 0 -8 241 -827 244 -831 2 -1
44 32 94 74 l90 76 -24 71 c-14 40 -23 77 -22 83 2 6 57 57 122 112 l120 100
69 -34 c38 -20 76 -33 84 -30 17 7 173 138 173 147 0 5 -752 372 -774 377 -6
1 -48 -30 -93 -69z m264 -241 c50 -26 94 -51 97 -56 3 -5 -25 -34 -62 -65
l-67 -56 -32 97 c-46 136 -46 135 -37 131 5 -2 50 -25 101 -51z"/>
<path d="M3915 2965 c-131 -173 -236 -317 -234 -318 94 -75 501 -377 508 -377
10 0 111 127 111 139 -1 3 -63 52 -138 109 -75 56 -148 111 -161 121 l-25 19
39 51 39 51 30 -23 c17 -13 80 -60 140 -105 l108 -81 55 70 c30 39 53 72 51
74 -2 2 -64 50 -139 107 l-136 103 36 47 c21 29 39 44 45 39 132 -101 297
-221 305 -221 13 0 110 133 104 143 -8 13 -482 367 -491 367 -5 0 -116 -142
-247 -315z"/>
<path d="M10750 2914 c-47 -31 -88 -60 -93 -63 -4 -4 92 -157 213 -339 l220
-332 95 62 c52 35 95 66 95 70 0 12 -429 658 -437 658 -5 0 -46 -25 -93 -56z"/>
<path d="M4805 2707 c-119 -31 -213 -109 -267 -223 -116 -247 19 -515 301
-598 91 -27 267 -14 266 19 0 6 -14 49 -30 98 -23 69 -33 86 -45 81 -27 -11
-98 -17 -133 -10 -99 19 -186 130 -174 221 16 115 118 215 219 215 82 0 185
-80 209 -160 10 -34 16 -40 33 -37 12 3 56 13 99 23 l78 18 -6 30 c-26 126
-151 255 -300 307 -74 26 -184 33 -250 16z"/>
<path d="M10333 2665 c-193 -52 -340 -207 -358 -378 -16 -150 57 -310 178
-390 145 -96 343 -89 506 19 65 43 149 128 175 176 l18 34 -72 144 c-40 80
-74 147 -76 149 -6 7 -184 -82 -184 -91 0 -5 21 -49 46 -99 l45 -91 -23 -25
c-56 -60 -171 -90 -241 -64 -38 15 -96 70 -118 113 -62 121 -14 241 119 301
44 19 132 21 173 3 13 -6 22 10 47 76 17 46 33 90 34 98 7 35 -171 51 -269 25z"/>
<path d="M5510 2416 c-5 -14 -63 -176 -129 -363 -66 -186 -122 -345 -125 -353
-5 -12 19 -24 105 -54 60 -21 111 -37 113 -35 2 2 25 68 52 145 l49 141 95
-33 c52 -19 114 -41 137 -50 l42 -15 -50 -141 c-27 -78 -46 -144 -42 -148 4
-4 54 -23 110 -43 l101 -36 10 27 c65 178 252 715 252 721 0 7 -194 81 -212
81 -3 0 -27 -61 -53 -135 -26 -74 -51 -135 -55 -135 -5 0 -67 21 -138 46
l-131 46 49 139 c35 99 46 141 37 144 -6 2 -56 20 -110 39 l-98 35 -9 -23z"/>
<path d="M9345 2262 c-133 -39 -241 -128 -293 -239 -24 -52 -27 -69 -27 -168
0 -103 2 -114 32 -177 83 -176 269 -265 468 -225 158 33 274 117 338 246 30
61 32 72 32 171 0 102 -1 109 -38 182 -46 94 -121 166 -205 199 -78 30 -223
36 -307 11z m182 -193 c65 -24 128 -112 139 -193 19 -139 -118 -263 -251 -226
-90 25 -153 107 -162 209 -4 48 -1 64 24 111 23 44 39 60 82 82 57 30 118 36
168 17z"/>
<path d="M6395 2128 c-3 -11 -123 -719 -128 -758 -2 -11 23 -19 106 -33 60
-11 110 -17 113 -15 2 3 18 86 35 184 17 98 32 185 35 193 3 8 61 -84 131
-205 69 -120 129 -222 132 -227 11 -12 183 -39 191 -30 5 6 122 674 133 762 2
11 -26 19 -106 34 -60 10 -111 17 -113 14 -3 -2 -19 -87 -36 -188 -17 -101
-34 -187 -37 -191 -3 -4 -64 94 -134 218 -71 123 -129 224 -130 224 -1 0 -40
7 -87 15 -103 18 -100 18 -105 3z"/>
<path d="M8367 2035 c-43 -7 -81 -16 -84 -19 -6 -6 107 -768 116 -777 5 -5
591 78 597 84 3 3 -25 179 -28 182 -2 1 -84 -10 -183 -25 -99 -15 -182 -26
-183 -24 -4 2 -92 567 -92 587 0 10 -51 7 -143 -8z"/>
<path d="M7568 1991 c-168 -55 -274 -189 -285 -359 -13 -183 71 -328 236 -406
64 -30 70 -31 201 -31 131 0 137 1 202 32 90 42 160 110 201 192 30 63 32 71
32 181 0 110 -2 119 -32 181 -41 83 -111 150 -201 192 -61 28 -77 31 -182 34
-92 3 -126 -1 -172 -16z m266 -208 c107 -75 125 -232 40 -332 -112 -130 -320
-70 -353 102 -19 105 23 197 111 242 69 35 141 30 202 -12z"/>
<path d="M14380 3620 l0 -60 100 0 100 0 0 -275 0 -275 60 0 60 0 0 275 0 275
100 0 100 0 0 60 0 60 -260 0 -260 0 0 -60z"/>
<path d="M15010 3345 l0 -335 60 0 60 0 1 243 0 242 107 -212 107 -213 37 0
38 0 109 218 110 217 0 -247 1 -248 60 0 60 0 0 335 0 335 -91 0 -90 0 -98
-202 -98 -203 -16 35 c-8 19 -51 110 -96 203 l-81 167 -90 0 -90 0 0 -335z"/>
</g>
</svg>
